<svg id="Layer_1" data-name="Layer 1" xmlns="http://www.w3.org/2000/svg" xmlns:xlink="http://www.w3.org/1999/xlink" viewBox="0 0 872.65 598.55"><defs><style>.cls-1{fill:url(#linear-gradient);}.cls-2{fill:url(#linear-gradient-2);}.cls-3{fill:url(#linear-gradient-3);}.cls-4{fill:url(#linear-gradient-5);}.cls-5{fill:url(#linear-gradient-6);}.cls-6{fill:url(#linear-gradient-7);}.cls-7{fill:url(#linear-gradient-8);}.cls-8{fill:url(#linear-gradient-9);}.cls-9{fill:url(#linear-gradient-10);}.cls-10{fill:url(#linear-gradient-11);}.cls-11{fill:url(#linear-gradient-12);}.cls-12{fill:url(#linear-gradient-13);}.cls-13{fill:url(#linear-gradient-14);}.cls-14{fill:url(#linear-gradient-15);}.cls-15{fill:url(#linear-gradient-16);}.cls-16{fill:#333;}.cls-17{fill:#fff;}.cls-18{fill:url(#linear-gradient-17);}.cls-19{fill:#fbb03b;}.cls-20{fill:#603813;}.cls-21{fill:#794d07;}.cls-22{fill:#8c6239;}.cls-23{fill:#754c24;}.cls-24{fill:#c6c6c6;}.cls-25,.cls-26,.cls-27,.cls-28,.cls-29,.cls-30,.cls-31,.cls-32,.cls-33,.cls-42,.cls-52{stroke:#fff;}.cls-25,.cls-26,.cls-27,.cls-28,.cls-29,.cls-30,.cls-31,.cls-32,.cls-33,.cls-42,.cls-49,.cls-50,.cls-51,.cls-52{stroke-miterlimit:10;}.cls-25{fill:url(#linear-gradient-18);}.cls-26{fill:url(#linear-gradient-19);}.cls-27{fill:url(#linear-gradient-20);}.cls-28{fill:url(#linear-gradient-21);}.cls-29{fill:url(#linear-gradient-22);}.cls-30{fill:url(#linear-gradient-23);}.cls-31{fill:url(#linear-gradient-24);}.cls-32{fill:url(#linear-gradient-25);}.cls-33{fill:url(#linear-gradient-26);}.cls-34{fill:#fefefe;}.cls-35{fill:url(#radial-gradient);}.cls-36{fill:url(#radial-gradient-2);}.cls-37{fill:url(#radial-gradient-3);}.cls-38{fill:url(#radial-gradient-4);}.cls-39{fill:url(#radial-gradient-5);}.cls-40{fill:url(#radial-gradient-6);}.cls-41{fill:url(#radial-gradient-7);}.cls-42{fill:url(#radial-gradient-8);}.cls-43{fill:url(#radial-gradient-9);}.cls-44{fill:url(#radial-gradient-10);}.cls-45{fill:url(#radial-gradient-11);}.cls-46{fill:url(#radial-gradient-12);}.cls-47{fill:url(#radial-gradient-13);}.cls-48{fill:url(#radial-gradient-14);}.cls-49,.cls-50,.cls-51{stroke:#794d07;}.cls-49{fill:url(#radial-gradient-15);}.cls-50{fill:url(#radial-gradient-16);}.cls-51{fill:url(#radial-gradient-17);}.cls-52{fill:url(#radial-gradient-18);}.cls-53{fill:url(#radial-gradient-19);}.cls-54{fill:#ffb51e;}</style><linearGradient id="linear-gradient" x1="641.04" y1="368.93" x2="645.63" y2="368.93" gradientUnits="userSpaceOnUse"><stop offset="0" stop-color="#d9e021"/><stop offset="0.57" stop-color="#fa2d92"/><stop offset="1" stop-color="#33d0e0"/></linearGradient><linearGradient id="linear-gradient-2" x1="381.05" y1="368.93" x2="905.62" y2="368.93" xlink:href="#linear-gradient"/><linearGradient id="linear-gradient-3" x1="457.87" y1="368.93" x2="828.8" y2="368.93" xlink:href="#linear-gradient"/><linearGradient id="linear-gradient-5" x1="399.57" y1="368.93" x2="887.1" y2="368.93" xlink:href="#linear-gradient"/><linearGradient id="linear-gradient-6" x1="546.54" y1="368.93" x2="740.13" y2="368.93" xlink:href="#linear-gradient"/><linearGradient id="linear-gradient-7" x1="402.52" y1="368.93" x2="884.15" y2="368.93" xlink:href="#linear-gradient"/><linearGradient id="linear-gradient-8" x1="539.41" y1="368.93" x2="747.26" y2="368.93" xlink:href="#linear-gradient"/><linearGradient id="linear-gradient-9" x1="591.71" y1="368.93" x2="694.96" y2="368.93" xlink:href="#linear-gradient"/><linearGradient id="linear-gradient-10" x1="386.19" y1="368.93" x2="900.49" y2="368.93" xlink:href="#linear-gradient"/><linearGradient id="linear-gradient-11" x1="425" y1="368.93" x2="861.67" y2="368.93" xlink:href="#linear-gradient"/><linearGradient id="linear-gradient-12" x1="498.01" y1="368.93" x2="788.67" y2="368.93" xlink:href="#linear-gradient"/><linearGradient id="linear-gradient-13" x1="385.29" y1="368.93" x2="901.39" y2="368.93" xlink:href="#linear-gradient"/><linearGradient id="linear-gradient-14" x1="596.42" y1="368.93" x2="690.26" y2="368.93" xlink:href="#linear-gradient"/><linearGradient id="linear-gradient-15" x1="427.69" y1="368.93" x2="858.98" y2="368.93" xlink:href="#linear-gradient"/><linearGradient id="linear-gradient-16" x1="494.04" y1="368.93" x2="792.63" y2="368.93" xlink:href="#linear-gradient"/><linearGradient id="linear-gradient-17" x1="512.04" y1="387.3" x2="763.78" y2="387.3" gradientUnits="userSpaceOnUse"><stop offset="0.22" stop-color="#ffb51e"/><stop offset="1" stop-color="#4f2c00"/></linearGradient><linearGradient id="linear-gradient-18" x1="264.1" y1="611.46" x2="395.5" y2="611.46" gradientUnits="userSpaceOnUse"><stop offset="0.22" stop-color="#ffb51e"/><stop offset="1" stop-color="#794d07"/></linearGradient><linearGradient id="linear-gradient-19" x1="967.65" y1="611.31" x2="1040.91" y2="611.31" xlink:href="#linear-gradient-18"/><linearGradient id="linear-gradient-20" x1="414.96" y1="635.43" x2="491.09" y2="635.43" xlink:href="#linear-gradient-18"/><linearGradient id="linear-gradient-21" x1="874.33" y1="635.45" x2="950.87" y2="635.45" xlink:href="#linear-gradient-18"/><linearGradient id="linear-gradient-22" x1="733.11" y1="611.21" x2="806.17" y2="611.21" xlink:href="#linear-gradient-18"/><linearGradient id="linear-gradient-23" x1="822.41" y1="611.63" x2="856.64" y2="611.63" xlink:href="#linear-gradient-18"/><linearGradient id="linear-gradient-24" x1="503.26" y1="634.66" x2="554.48" y2="634.66" xlink:href="#linear-gradient-18"/><linearGradient id="linear-gradient-25" x1="612.47" y1="634.55" x2="666.17" y2="634.55" xlink:href="#linear-gradient-18"/><linearGradient id="linear-gradient-26" x1="569.25" y1="634.53" x2="595.97" y2="634.53" xlink:href="#linear-gradient-18"/><radialGradient id="radial-gradient" cx="698.09" cy="555.99" r="2.17" gradientTransform="translate(-2215.99 -1578.95) scale(4.45 4)" gradientUnits="userSpaceOnUse"><stop offset="0.22" stop-color="#ffb51e"/><stop offset="0.31" stop-color="#f3ac1c"/><stop offset="0.48" stop-color="#d39317"/><stop offset="0.7" stop-color="#a06b0e"/><stop offset="0.96" stop-color="#5a3402"/><stop offset="1" stop-color="#4f2c00"/></radialGradient><radialGradient id="radial-gradient-2" cx="675.44" cy="530.78" r="4.27" xlink:href="#radial-gradient"/><radialGradient id="radial-gradient-3" cx="393.73" cy="537.52" r="1.98" gradientTransform="matrix(-4.45, 0, 0, 4, 2548.91, -1578.95)" xlink:href="#radial-gradient"/><radialGradient id="radial-gradient-4" cx="624.74" cy="541.38" r="3.61" xlink:href="#radial-gradient"/><radialGradient id="radial-gradient-5" cx="673.85" cy="468.16" r="1.36" xlink:href="#radial-gradient"/><radialGradient id="radial-gradient-6" cx="621.13" cy="553.98" r="3.4" xlink:href="#radial-gradient"/><radialGradient id="radial-gradient-7" cx="259.84" cy="371.55" r="2.24" gradientTransform="matrix(-12.74, 0, 0, 8.75, 4139.11, -2666.59)" xlink:href="#radial-gradient"/><radialGradient id="radial-gradient-8" cx="451.77" cy="1335.81" r="19.47" gradientTransform="translate(-252.32 -797.6) scale(1.3 1.14)" xlink:href="#radial-gradient"/><radialGradient id="radial-gradient-9" cx="692.01" cy="548.22" r="2.38" xlink:href="#radial-gradient"/><radialGradient id="radial-gradient-10" cx="612.75" cy="903.05" r="10.07" gradientTransform="translate(-1030.47 -1138.1) scale(2.46 2)" xlink:href="#radial-gradient"/><radialGradient id="radial-gradient-11" cx="723.69" cy="554.19" r="10.2" gradientTransform="matrix(2.77, 1.39, -1.11, 1.8, -978.94, -1270.77)" xlink:href="#radial-gradient"/><radialGradient id="radial-gradient-12" cx="612.81" cy="567.58" r="5.59" xlink:href="#radial-gradient"/><radialGradient id="radial-gradient-13" cx="665.42" cy="103.33" r="3.61" gradientTransform="matrix(4.45, 0, 0, -4.64, -2215.99, 1052.38)" xlink:href="#radial-gradient"/><radialGradient id="radial-gradient-14" cx="730.38" cy="738.04" r="13.43" gradientTransform="translate(-1517.05 -805.4) scale(3.1 1.78)" xlink:href="#radial-gradient"/><radialGradient id="radial-gradient-15" cx="932.22" cy="625.84" r="2.19" gradientTransform="translate(-974.57 -764.56) scale(2.11 2.05)" xlink:href="#radial-gradient"/><radialGradient id="radial-gradient-16" cx="932.22" cy="635.12" r="2.19" gradientTransform="translate(-974.57 -764.56) scale(2.11 2.05)" xlink:href="#radial-gradient"/><radialGradient id="radial-gradient-17" cx="918.28" cy="634.2" r="14.2" gradientTransform="translate(-974.57 -764.56) scale(2.11 2.05)" xlink:href="#radial-gradient"/><radialGradient id="radial-gradient-18" cx="552.34" cy="558.62" r="26.65" xlink:href="#radial-gradient"/><radialGradient id="radial-gradient-19" cx="634.26" cy="527.2" r="9.73" xlink:href="#radial-gradient"/></defs><path class="cls-1" d="M643.34,192c.95,29.5,1.44,59,1.78,88.49l.14,11.06.08,11.06.17,22.13.12,44.24-.12,44.25-.16,22.12-.09,11.06-.13,11.06c-.34,29.5-.84,59-1.79,88.49-1-29.49-1.46-59-1.8-88.49l-.13-11.06-.09-11.06-.16-22.12L641,368.93l.13-44.24.16-22.13.09-11.06.13-11.06C641.89,250.94,642.39,221.45,643.34,192Z" transform="translate(-168.76 -191.95)"/><path class="cls-2" d="M905.62,368.93q-65.57,1-131.14,1.21l-16.4.09-16.39.06-32.78.11-65.57.08-65.57-.08L545,370.29l-16.39-.06-16.39-.09q-65.58-.33-131.15-1.21,65.58-1,131.15-1.21l16.39-.09,16.39-.06,32.79-.11,65.57-.08,65.57.09,32.78.11,16.39.06,16.4.09Q840,368.06,905.62,368.93Z" transform="translate(-168.76 -191.95)"/><path class="cls-3" d="M828.8,243.79q-45.36,32-91.47,63.42l-11.5,7.89L714.31,323l-23.07,15.72L645,370l-46.45,31.23-23.3,15.56-11.65,7.78-11.68,7.76q-46.72,31-94,61.72,45.36-32,91.47-63.43l11.49-7.89,11.53-7.86,23.07-15.72,46.28-31.34,46.46-31.23L711.47,321l11.65-7.78,11.68-7.75Q781.53,274.46,828.8,243.79Z" transform="translate(-168.76 -191.95)"/><path class="cls-3" d="M828.8,494.08q-47.37-30.61-94-61.72l-11.68-7.76-11.65-7.78-23.3-15.57L641.71,370l-46.28-31.35L572.36,323l-11.53-7.86-11.49-7.88q-46-31.53-91.47-63.43,47.38,30.6,94,61.71l11.68,7.76L575.21,321l23.3,15.57L645,367.84l46.28,31.34,23.07,15.72,11.52,7.87,11.5,7.88Q783.34,462.18,828.8,494.08Z" transform="translate(-168.76 -191.95)"/><path class="cls-4" d="M887.1,303.62q-60.4,17.22-121.22,33.78l-15.19,4.16-15.2,4.14L705.08,354l-60.9,16.41-61,16.25-30.53,8.07-15.27,4-15.28,4q-61.14,16-122.55,31.54Q460,417,520.79,400.46L536,396.3l15.2-4.14,30.41-8.26,60.9-16.41,61-16.25L734,343.18l15.27-4,15.28-4Q825.69,319.15,887.1,303.62Z" transform="translate(-168.76 -191.95)"/><path class="cls-5" d="M740.13,533.42c-17-27.18-33.61-54.47-50.06-81.8l-6.17-10.25-6.13-10.26-12.25-20.52L641.2,369.5l-24.08-41.15-12-20.6-6-10.3-5.93-10.32c-15.82-27.49-31.48-55-46.73-82.69,17,27.18,33.62,54.47,50.07,81.8l6.17,10.25,6.13,10.26,12.25,20.52,24.31,41.09,24.08,41.15,12,20.6,6,10.31,5.93,10.31C709.21,478.23,724.88,505.77,740.13,533.42Z" transform="translate(-168.76 -191.95)"/><path class="cls-6" d="M884.15,439.06q-60.76-16.65-121.12-34l-15.1-4.3-15.08-4.33-30.17-8.66-60.25-17.46-60.16-17.6-30-8.87-15-4.43-15-4.47q-60-17.85-119.7-36.18,60.78,16.65,121.12,34l15.11,4.3,15.08,4.33L584,350.05l60.26,17.46,60.15,17.61,30,8.86,15,4.44,15,4.47Q824.45,420.74,884.15,439.06Z" transform="translate(-168.76 -191.95)"/><path class="cls-7" d="M539.41,531.43c16.45-27.34,33.31-54.56,50.32-81.73l6.37-10.19,6.42-10.18L615.36,409l25.87-40.66,26.09-40.59,13.14-20.27L687,297.33l6.62-10.12c17.63-27,35.41-53.95,53.61-80.77C730.82,233.78,714,261,697,288.16l-6.38,10.2-6.41,10.18-12.84,20.35-25.87,40.66-26.1,40.59L606.21,430.4l-6.58,10.14L593,450.66C575.38,477.65,557.6,504.6,539.41,531.43Z" transform="translate(-168.76 -191.95)"/><path class="cls-8" d="M695,195.41l-6.21,21.73-6.25,21.71-12.66,43.42c-4.19,14.47-8.52,28.93-12.78,43.39l-12.82,43.39-13,43.37-6.49,21.69-6.54,21.67-13.16,43.35-6.66,21.66-6.69,21.66,6.21-21.72L604.17,499l12.66-43.41,6.37-21.71,6.41-21.69,12.83-43.39,13-43.37c4.35-14.45,8.63-28.92,13-43.36l13.16-43.35,6.65-21.66Z" transform="translate(-168.76 -191.95)"/><path class="cls-9" d="M900.49,403.77l-32.19-4.2-32.19-4.22-64.34-8.53c-21.45-2.83-42.87-5.75-64.31-8.63l-64.3-8.65-64.28-8.76-32.13-4.39L514.62,352l-64.24-8.88-32.1-4.49-32.09-4.51,32.19,4.19,32.18,4.22,64.34,8.54,32.16,4.29,32.15,4.33,64.31,8.65,64.27,8.77q32.13,4.4,64.26,8.79l64.24,8.88,32.1,4.49Z" transform="translate(-168.76 -191.95)"/><path class="cls-10" d="M861.67,270.87l-27.15,12.39-27.18,12.38L752.9,320.3q-27.21,12.34-54.52,24.58l-54.54,24.57-54.62,24.47L561.9,406.15l-27.34,12.21-54.73,24.37-27.4,12.14L425,467l27.16-12.39,27.17-12.37,54.45-24.66L561,405.26,588.29,393l54.54-24.56L697.46,344q27.33-12.22,54.65-24.45l54.73-24.37L834.25,283Z" transform="translate(-168.76 -191.95)"/><path class="cls-11" d="M788.67,516.26,770.3,497.93,752,479.6l-36.55-36.74c-12.2-12.24-24.29-24.52-36.44-36.78l-36.4-36.8-36.26-36.87L588.18,314l-18.1-18.45L534,258.6l-18-18.49L498,221.6l18.37,18.33,18.34,18.34L571.26,295l18.24,18.39,18.2,18.4,36.4,36.8,36.26,36.86c12.08,12.29,24.21,24.56,36.23,36.88l36.12,36.93,18,18.49Z" transform="translate(-168.76 -191.95)"/><path class="cls-12" d="M901.39,337.27l-32.22,4.12L837,345.48l-64.46,8.09q-32.24,4.06-64.49,8l-64.5,8L579,377.4l-32.26,3.93-32.27,3.9L449.88,393l-32.3,3.82-32.29,3.79,32.21-4.12,32.22-4.09,64.46-8.09,32.25-4,32.24-4,64.5-8,64.53-7.86q32.26-3.91,64.54-7.83l64.55-7.74,32.3-3.82Z" transform="translate(-168.76 -191.95)"/><path class="cls-13" d="M690.26,543.06l-6.11-21.74-6.06-21.74-12-43.5c-4-14.5-7.91-29-11.86-43.52L642.43,369,630.78,325.5,625,303.73,619.18,282,607.7,238.39,602,216.6l-5.62-21.79,6.1,21.73,6.07,21.74,12,43.5,5.95,21.76,5.91,21.76,11.81,43.52,11.65,43.54c3.87,14.52,7.8,29,11.6,43.55L679,499.47l5.66,21.79Z" transform="translate(-168.76 -191.95)"/><path class="cls-14" d="M859,469.67l-27.09-12.46-27.07-12.48-54.06-25q-27-12.49-54-25.11l-54-25.14L589,344.21,562,331.6,535.11,319l-53.77-25.32-26.83-12.71-26.82-12.73,27.09,12.46,27.08,12.48,54.06,25,27,12.54,27,12.57,54,25.14,53.86,25.23q26.92,12.63,53.84,25.26l53.77,25.33,26.84,12.7Z" transform="translate(-168.76 -191.95)"/><path class="cls-15" d="M494,514.44l18.47-18.28L531,477.89l37.11-36.47c12.35-12.17,24.81-24.29,37.22-36.43l37.25-36.41L680,332.23l18.7-18.17L717.4,295.9l37.54-36.28,18.83-18.11,18.86-18.09L774.17,241.7,755.68,260l-37.12,36.48L700,314.67l-18.63,18.21-37.26,36.4L606.7,405.63c-12.47,12.11-24.9,24.24-37.43,36.33l-37.53,36.28L512.9,496.35Z" transform="translate(-168.76 -191.95)"/><path class="cls-16" d="M590.11,504.25,611,533.47s4.82,29.76,43.31,26,10.42-40.05,12.83-43.83,24.86-4.33,29.67-.54,1.6,31.92,1.6,31.92v7.58s12.84-1.63,14.44-13-10.42-52.49-10.42-52.49L630.2,499.92Z" transform="translate(-168.76 -191.95)"/><path class="cls-17" d="M647.71,560.82c-8.06,0-15.11-1.55-21-4.64a33.44,33.44,0,0,1-17.24-22.41l-21.63-30.33L630,498.89l73.63-11,.3,1c.49,1.68,12.05,41.4,10.45,52.79-1.7,12-15.55,13.89-15.69,13.91l-1.83.23V547c1.23-10.79,2-28.73-1.23-31.25-2.34-1.84-11.36-2.73-19.32-1.92-5,.52-7.32,1.51-7.76,2.2s1.06,3.91,2.27,6.75c3.78,8.93,9.5,22.41,1.42,30.85-3.58,3.74-9.54,6-17.72,6.85Q651,560.83,647.71,560.82ZM592.4,505.06l20.06,28.12,0,.18a31.86,31.86,0,0,0,16.1,21.18c6.83,3.56,15.4,4.87,25.45,3.88,7.25-.72,12.49-2.71,15.56-5.92,7.32-7.65,1.62-21.1-1.8-29.14-2-4.79-2.89-7-2.13-8.15,1.34-2.11,6.25-3,10.13-3.44,6.91-.71,18.33-.37,22.13,2.63,5,3.91,2.52,27.91,2,32.68v6.08c3.36-.9,10.23-3.7,11.35-11.67,1.42-10.08-8.25-44.66-10.1-51.14l-70.62,10.59Z" transform="translate(-168.76 -191.95)"/><path class="cls-16" d="M590.11,504.25,611,533.47s3.73,23,30.83,26a18.89,18.89,0,0,0,7.67-2.18c8-4.33,7.22-15.69,4.81-26.51-2.15-9.68-9.42-28.85-10.94-32.81l-13.12,2Z" transform="translate(-168.76 -191.95)"/><path class="cls-17" d="M641.74,560.51l-.21,0c-26.61-2.91-31.62-24.47-32.07-26.72l-21.65-30.33L630,498.89l14.48-2.17.37,1c1.45,3.77,8.8,23.12,11,32.91,2.09,9.42,3.82,22.52-5.38,27.49a21.2,21.2,0,0,1-8.46,2.4ZM592.4,505.06l20.06,28.12,0,.18c0,.22,3.91,22.15,29.32,25a17,17,0,0,0,6.67-1.94c7.95-4.29,6.23-16.64,4.25-25.55s-8.49-26.36-10.54-31.73l-11.65,1.75Z" transform="translate(-168.76 -191.95)"/><polygon class="cls-16" points="459.04 363.71 453.43 381.56 532.01 369.66 529.61 355.05 459.04 363.71"/><path class="cls-16" d="M620.17,574.89l6.33-20.13,1-.13,72.2-8.85,2.74,16.64Zm8.92-18.33-4.9,15.58,74.89-11.34L697,548.23Z" transform="translate(-168.76 -191.95)"/><polygon class="cls-17" points="445.41 100.18 446.21 112.63 452.63 138.6 461.45 160.79 467.86 180.81 484.7 226.81 495.13 248.99 509.56 249.53 494.33 229.51 453.43 112.09 454.23 100.18 445.41 100.18"/><path d="M604.6,504.76a82.92,82.92,0,0,1-31.76-6.13c-13.76-5.74-23.39-14.76-27.1-25.39L509.93,370.71c-7.47-21.37-2.15-43.42,15-62.09s44-31.72,75.64-36.75c28.88-4.6,58.69-1.33,83.93,9.21s42.89,27.07,49.7,46.56l32.76,93.8c5.18,14.84,1.49,30.15-10.39,43.11S726,486.58,704,490.08l-.71-2,.71,2-85.39,13.58A89.4,89.4,0,0,1,604.6,504.76ZM626.21,274a155,155,0,0,0-24.27,1.91c-30.05,4.78-55.55,17.18-71.8,34.9s-21.28,38.65-14.2,58.93l35.82,102.53c3.33,9.55,12,17.65,24.33,22.81a76.82,76.82,0,0,0,41.11,4.51L702.59,486c20.38-3.24,37.67-11.64,48.69-23.66s14.43-26.21,9.63-40l-32.77-93.81c-6.43-18.4-23.1-34-46.93-44A143.62,143.62,0,0,0,626.21,274Z" transform="translate(-168.76 -191.95)"/><path class="cls-18" d="M728.89,328.47c-6.47-18.54-23.26-34.27-47.27-44.29a144.73,144.73,0,0,0-55.41-10.69,155.84,155.84,0,0,0-24.44,1.93c-30.26,4.81-55.93,17.28-72.28,35.12s-21.43,38.91-14.3,59.33L551,472.41c3.38,9.68,12.15,17.89,24.69,23.12a77.82,77.82,0,0,0,41.69,4.58l85.39-13.58c42.49-6.76,68.91-35.58,58.89-64.25Z" transform="translate(-168.76 -191.95)"/><path d="M766.17,421.56l-32.77-93.8c-6.76-19.36-24.28-35.78-49.35-46.24s-54.66-13.71-83.35-9.15c-31.46,5-58.15,18-75.15,36.53s-22.29,40.46-14.87,61.69l35.81,102.53c3.67,10.5,13.17,19.4,26.76,25.07a81.81,81.81,0,0,0,31.35,6.05,88.23,88.23,0,0,0,13.84-1.09l85.39-13.58c21.79-3.46,40.27-12.45,52-25.29S771.31,436.26,766.17,421.56Zm-63.4,65-85.39,13.58a77.82,77.82,0,0,1-41.69-4.58c-12.54-5.23-21.31-13.44-24.69-23.12L515.19,369.87c-7.13-20.42-2.05-41.49,14.3-59.33s42-30.31,72.28-35.12a155.84,155.84,0,0,1,24.44-1.93,144.73,144.73,0,0,1,55.41,10.69c24,10,40.8,25.75,47.27,44.29l32.77,93.81C771.68,451,745.26,479.77,702.77,486.53Z" transform="translate(-168.76 -191.95)"/><path d="M573.07,279.84s10.39.81,14.15,5.23,11.42,11.12,18.6,11.85,18.49-.62,16.33-5a30.61,30.61,0,0,0-24-16.32Z" transform="translate(-168.76 -191.95)"/><path d="M615.23,272.9s9.63,4.32,16,11.36,10.43,9.74,16,8.66,7.22-4.33-1.6-13a29,29,0,0,0-19-8.54Z" transform="translate(-168.76 -191.95)"/><path d="M657.77,283c5.47,7.6,8.89,10.53,13.68,9.36s6.15-4.68-1.37-14a29.25,29.25,0,0,0-2-2.22,123.56,123.56,0,0,0-21.63-3.85A47.29,47.29,0,0,1,657.77,283Z" transform="translate(-168.76 -191.95)"/><polygon points="524.8 109.38 528.81 121.29 552.06 122.91 547.25 111.01 524.8 109.38"/><polygon points="532.01 129.94 536.02 141.85 559.28 143.47 554.47 131.57 532.01 129.94"/><polygon points="539.23 151.05 543.24 162.95 566.5 164.58 561.69 152.67 539.23 151.05"/><polygon points="545.65 172.69 549.66 184.6 572.91 186.22 568.1 174.32 545.65 172.69"/><polygon points="553.67 194.34 557.68 206.24 580.93 207.87 576.12 195.96 553.67 194.34"/><polygon points="561.69 215.98 565.7 227.89 588.95 229.51 584.14 217.61 561.69 215.98"/><path d="M667.89,300.79l4,11.91s-41.7,1.62-55.33,3.79c-9.59,1.52-36.22,10.8-51.19,16.17-5.31,1.91-11.84-.14-13.12-4.1h0c-.86-2.67,1.33-5.05,4.57-6.69,11.62-5.93,40.17-15.08,50.92-17C630.2,300.79,667.89,300.79,667.89,300.79Z" transform="translate(-168.76 -191.95)"/><path d="M674.31,322.44l4,11.9S636.62,336,623,338.13c-9.58,1.52-36.22,10.8-51.19,16.18-5.3,1.91-11.84-.14-13.12-4.11h0c-.85-2.67,1.34-5,4.57-6.69,11.63-5.92,40.18-15.07,50.92-17C636.62,322.44,674.31,322.44,674.31,322.44Z" transform="translate(-168.76 -191.95)"/><path d="M680.72,344.08l4,11.91s-41.7,1.62-55.33,3.78c-9.59,1.53-36.22,10.81-51.19,16.18-5.31,1.91-11.84-.14-13.12-4.1h0c-.86-2.67,1.34-5.05,4.57-6.7,11.62-5.92,40.17-15.07,50.92-17C643,344.08,680.72,344.08,680.72,344.08Z" transform="translate(-168.76 -191.95)"/><path d="M687.14,365.73l4,11.9s-41.7,1.62-55.33,3.79c-9.59,1.52-36.23,10.8-51.19,16.18-5.31,1.9-11.85-.14-13.12-4.11h0c-.86-2.67,1.33-5.05,4.56-6.69,11.63-5.92,40.18-15.07,50.92-17C649.45,365.73,687.14,365.73,687.14,365.73Z" transform="translate(-168.76 -191.95)"/><path d="M693.55,387.37l4,11.91s-41.7,1.62-55.33,3.78c-9.59,1.53-36.22,10.81-51.19,16.18-5.31,1.91-11.84-.14-13.12-4.1h0c-.86-2.67,1.34-5.05,4.57-6.7,11.63-5.92,40.18-15.07,50.92-17C655.86,387.37,693.55,387.37,693.55,387.37Z" transform="translate(-168.76 -191.95)"/><path d="M700,409l4,11.9s-41.7,1.62-55.33,3.79c-9.59,1.52-36.22,10.8-51.19,16.18-5.31,1.9-11.85-.14-13.12-4.11h0c-.86-2.67,1.33-5,4.56-6.69,11.63-5.92,40.18-15.07,50.93-17C662.28,409,700,409,700,409Z" transform="translate(-168.76 -191.95)"/><path d="M535.27,339.73l-.13-1.4c-.15-1.61-3-2.39-4.75-1.3-4.89,3-12.51,7.82-15.67,10.3-2.55,2-2.39,4.63-1.68,6.65.5,1.43,3.17,1.91,4.63.82,2.83-2.1,7.66-5.51,14.37-9.66C534.27,343.76,535.46,341.77,535.27,339.73Z" transform="translate(-168.76 -191.95)"/><path d="M542.49,360.83l-.13-1.4c-.15-1.61-3-2.39-4.75-1.3-4.89,3-12.52,7.82-15.67,10.3-2.55,2-2.39,4.64-1.68,6.66.5,1.43,3.16,1.9,4.63.81,2.83-2.1,7.66-5.51,14.37-9.65C541.49,364.87,542.68,362.87,542.49,360.83Z" transform="translate(-168.76 -191.95)"/><path d="M549.71,381.93l-.13-1.4c-.15-1.61-3-2.39-4.76-1.3-4.88,3-12.51,7.82-15.66,10.31-2.56,2-2.4,4.63-1.69,6.65.51,1.43,3.17,1.9,4.64.82,2.82-2.1,7.65-5.52,14.36-9.66C548.71,386,549.9,384,549.71,381.93Z" transform="translate(-168.76 -191.95)"/><path d="M556.92,403l-.13-1.4c-.15-1.61-3-2.39-4.75-1.3-4.89,3-12.51,7.82-15.66,10.3-2.56,2-2.4,4.63-1.69,6.65.51,1.43,3.17,1.91,4.63.82,2.83-2.1,7.66-5.51,14.37-9.66C555.93,407.07,557.11,405.08,556.92,403Z" transform="translate(-168.76 -191.95)"/><path d="M564.14,424.14l-.13-1.4c-.15-1.61-3-2.39-4.75-1.3-4.89,3-12.51,7.82-15.67,10.3-2.55,2-2.39,4.64-1.68,6.66.5,1.43,3.17,1.9,4.63.81,2.83-2.1,7.66-5.51,14.37-9.65C563.14,428.18,564.33,426.18,564.14,424.14Z" transform="translate(-168.76 -191.95)"/><path class="cls-17" d="M631.4,557.26c-9.49,0-17.21-9-17.21-20s7.72-20,17.21-20,17.22,9,17.22,20S640.9,557.26,631.4,557.26Zm0-39c-8.63,0-15.66,8.51-15.66,19s7,19,15.66,19,15.67-8.51,15.67-19S640,518.3,631.4,518.3Z" transform="translate(-168.76 -191.95)"/><ellipse cx="465.86" cy="345.31" rx="19.65" ry="19.48"/><path class="cls-17" d="M634.61,557.78c-11.68,0-21.19-9.2-21.19-20.52s9.51-20.52,21.19-20.52,21.2,9.2,21.2,20.52S646.3,557.78,634.61,557.78Zm0-39a18.44,18.44,0,1,0,18.11,18.44A18.29,18.29,0,0,0,634.61,518.82Z" transform="translate(-168.76 -191.95)"/><path d="M571.36,445.24l-.13-1.4c-.15-1.61-3-2.39-4.76-1.3-4.88,3-12.51,7.83-15.66,10.31-2.56,2-2.4,4.63-1.68,6.65.5,1.43,3.16,1.91,4.63.82,2.83-2.1,7.66-5.52,14.36-9.66C570.36,449.28,571.55,447.28,571.36,445.24Z" transform="translate(-168.76 -191.95)"/><path d="M629.64,484.48c-2.21-.58-2.68-2.56-.82-3.57,7.39-4,22-12.55,23.84-17.78,2.4-7-1.08-24.39,13.63-25.43,15.24-1.09,20.85,9.19,15.24,21.1-4.28,9.07-24.39,21.28-33.72,26.58a14.39,14.39,0,0,1-10.4,1.16Z" transform="translate(-168.76 -191.95)"/><path d="M656.67,487.48s25.66-10.82,32.07-23.81-.8-29.22,12-29.76,11.23,20.56,6.42,30.84-34.49,24.89-34.49,24.89S659,490.09,656.67,487.48Z" transform="translate(-168.76 -191.95)"/><path d="M679.92,491.27s33.68-18.4,36.89-27.06,0-34.09,9.62-32.47,9.63,23.27,2.41,34.09-33.68,24.35-33.68,24.35Z" transform="translate(-168.76 -191.95)"/><path d="M749.69,430.66c-9.62-1.62-6.42,23.81-9.62,32.47-2.42,6.52-22.12,18.56-31.7,24.11l8.94-1.42A92.93,92.93,0,0,0,729,483.18c8.23-4.93,18.93-12.14,23.12-18.43C759.31,453.93,759.31,432.28,749.69,430.66Z" transform="translate(-168.76 -191.95)"/><path d="M713.28,358.83c-2-5.92-9-9.89-15.69-8.87a12.5,12.5,0,0,0-2.61.7c6.63-1,13.57,3,15.54,8.88,1.71,5.09-.88,9.95-5.88,11.86h.14C711.46,370.37,715.26,364.75,713.28,358.83Z" transform="translate(-168.76 -191.95)"/><path d="M637.42,536.18c0,5.08-3.41,9.2-7.62,9.2s-7.62-4.12-7.62-9.2,3.41-9.2,7.62-9.2S637.42,531.1,637.42,536.18Z" transform="translate(-168.76 -191.95)"/><path class="cls-17" d="M629.8,546.42c-5.14,0-9.16-4.5-9.16-10.24s4-10.24,9.16-10.24,9.16,4.5,9.16,10.24S634.94,546.42,629.8,546.42Zm0-18.4c-2.87,0-6.07,3.35-6.07,8.16s3.2,8.16,6.07,8.16,6.07-3.35,6.07-8.16S632.67,528,629.8,528Z" transform="translate(-168.76 -191.95)"/><path class="cls-19" d="M632.06,527.39a9.49,9.49,0,0,0-4.26,8.25c0,4.13,2.25,7.62,5.36,8.79a9.52,9.52,0,0,0,4.26-8.25C637.42,532.05,635.16,528.55,632.06,527.39Z" transform="translate(-168.76 -191.95)"/><path class="cls-20" d="M665.49,518.32c-2.17-2.34,24-.54,24-.54s10.23,9.77,11.23,18.94c1.12,10.24-2,25.18-2,25.18l-28.5,3.5S679.74,533.76,665.49,518.32Z" transform="translate(-168.76 -191.95)"/><path class="cls-21" d="M667.35,567.35l.68-2.26c.09-.31,9.09-31.21-4.51-45.94h0a1.44,1.44,0,0,1,0-2.1c.69-.74,2.3-2.47,26.31-.82l1.05.07.61.58c.43.41,10.61,10.23,11.64,19.72,1.12,10.29-1.86,24.9-2,25.52l-.23,1.12Zm1.22-48.56c11.08,13.76,6.44,37.27,4.6,44.67l23.55-2.89c.67-3.64,2.65-15.38,1.74-23.74-.8-7.4-8.1-15.38-10.23-17.57A191.75,191.75,0,0,0,668.57,518.79Z" transform="translate(-168.76 -191.95)"/><path class="cls-21" d="M672,564.68l-49.84,8.84,10.73,121.75,44.34,10.23c.13,0,.26,0,.26-.14Z" transform="translate(-168.76 -191.95)"/><path class="cls-22" d="M669.21,566.2c-15.65,3.11-30.86,6.09-46.42,8.82h0l1.73-1.61c.57,10.16,1.34,20.31,2,30.47l2.34,30.45c.74,10.15,1.71,20.29,2.56,30.44l2.64,30.44-.77-.68c3.71.83,7.42,1.65,11.16,2.42l11.25,2.21L667,701.36c3.75.74,7.48,1.53,11.2,2.32l-.21,0a3.63,3.63,0,0,0-2.39.38,2,2,0,0,0-.73.69,1.45,1.45,0,0,0-.16.42,1,1,0,0,0,0,.26v-.27l0-.55-.06-1.09-.12-2.17-.23-4.36-.45-8.69-.87-17.35-1.55-34.57c-.46-11.51-.88-23-1.19-34.53l-.92-34.62Zm5.65-3L676.64,598q.92,17.94,1.56,36l1.2,35.89.51,17.89.23,8.92.12,4.46,0,2.23,0,1.11v.84a1.56,1.56,0,0,1,0,.32,1.84,1.84,0,0,1-.19.49,2.27,2.27,0,0,1-.85.8,4.2,4.2,0,0,1-2.76.44l-.16,0h0c-3.67-.91-7.33-1.83-11-2.79l-10.89-2.94-10.92-2.9c-3.65-.93-7.33-1.82-11-2.69l-.72-.18-.05-.51-2.72-30.43c-.94-10.15-1.76-20.3-2.81-30.44l-3-30.42c-1.12-10.14-2.14-20.28-3.35-30.41l-.15-1.25,1.87-.36h0c17.19-3.07,34.73-5.89,51.8-8.57Z" transform="translate(-168.76 -191.95)"/><path class="cls-23" d="M700.77,562.4c0-.4-.56-.7-1.13-.6l-24.62,4c-.42.07-.71.33-.7.62l3.17,137.88c0,.64.88,1.11,1.81,1l21-2.84c.43-.06.74-.31.74-.61Z" transform="translate(-168.76 -191.95)"/><path d="M695,357c-5,2.73-.17,11.13,6.15,8.13,1.14-.54.79-2.26-.43-2.64a7.13,7.13,0,0,1-3-1.6c-.35-.36-.27-.28-.45-.76,0,.06,0,.48,0,.17a3.36,3.36,0,0,0,.08-.71c-.11.39-.13.48-.06.28a1.88,1.88,0,0,0,.05-2.43A1.82,1.82,0,0,0,695,357Z" transform="translate(-168.76 -191.95)"/><path d="M620,446.88A214.79,214.79,0,0,0,580,462a195.34,195.34,0,0,0-17.65,9.6c-5.11,3.24-11.26,6.73-14,11.16-.38.63.1,2.67,1.69,2.13,5.32-1.81,9.38-6.21,13.58-9.09a193.24,193.24,0,0,1,17-10.63,238.73,238.73,0,0,1,39.93-16.56.88.88,0,0,0-.52-1.68Z" transform="translate(-168.76 -191.95)"/><path d="M603.46,460.69a236.18,236.18,0,0,0-25.38,12.43c-7.91,4.42-17.4,8.89-23.27,14.64-1.24,1.2-.06,4.87,2.74,3.44,8.22-4.22,14.6-10.48,22.28-15.22s16.1-9.3,24.31-13.77c.66-.36.28-1.91-.68-1.52Z" transform="translate(-168.76 -191.95)"/><path class="cls-16" d="M634.76,604.77c1.82-6.5,3.3-13,5-19.53,1.57-5.89,5-12.26,4.08-18.26-.22-1.54-2.44-3-3.73-1-3.57,5.47-2.86,12.42-3.85,18.3-1.1,6.66-2.47,13.28-3.5,19.94-.17,1.08,1.58,1.9,2,.52Z" transform="translate(-168.76 -191.95)"/><path class="cls-16" d="M650,605.06c2.82-6.55,4.45-13.35,6.51-20s5.42-13.72,5.29-20.7c0-1.71-2.78-3.16-4-1.05-3.6,6.14-3.83,13.16-5.18,19.64-1.49,7.13-3.47,14.28-4.22,21.46-.06.65,1.14,1.77,1.62.67Z" transform="translate(-168.76 -191.95)"/><path class="cls-16" d="M661.1,607.76q3.95-10.68,7.31-21.46c2.07-6.63,5.33-13.82,5.31-20.61a1.74,1.74,0,0,0-3.2-.83c-4.17,6-4.91,13.76-6.48,20.29-1.78,7.33-3.42,14.68-5.25,22a1.2,1.2,0,0,0,2.31.61Z" transform="translate(-168.76 -191.95)"/><path class="cls-24" d="M846.92,594.76a2.54,2.54,0,0,1,.91,0v5.75l-1,0C845,598.63,845,596.69,846.92,594.76Z" transform="translate(-168.76 -191.95)"/><path class="cls-25" d="M354.6,602.18c-1.32,6.45-2.7,12.9-4,19.37q-8.2,42.15-16.37,84.31c-.5,2.56-.53,5.11-5.15,4.87-3.49-.19-4.46-1.31-4.92-4q-4.87-28.11-9.91-56.2c-2.87-16.18-5.79-32.35-8.72-48.68-1.95,1-1.5,2.49-1.61,3.63q-4.5,46-8.89,92c-.41,4.24.93,9.92-2.1,12.28-2.69,2.09-8.78.83-13.36.72-5.09-.13-12,2.07-14.7-.93-2.17-2.44.61-8.46,1.21-12.89Q276.23,621.86,286.35,547c1.43-10.61,3-21.21,4.21-31.84.3-2.58,1.07-3.53,4.07-3.42,5.86.21,11.74.23,17.59,0,3.3-.14,4,.88,4.33,3.73,4.21,41.3,8.6,82.59,13.54,123.93,1.1-8.65,2.24-17.3,3.28-26Q339.27,564.23,345,515c.28-2.45,1-3.25,3.78-3.18,6.21.16,12.44.11,18.66,0,2.14,0,3.12.49,3.38,2.59,2.76,22.35,5.63,44.7,8.48,67q6.14,48.25,12.29,96.51c1.22,9.51,2.32,19,3.75,28.52.52,3.45-.63,4.3-4.38,4.16-7.27-.28-14.57-.24-21.85,0-3.19.09-4.34-.73-4.57-3.63q-3.7-45.57-7.63-91.14c-.38-4.52-.82-9-1.24-13.57Z" transform="translate(-168.76 -191.95)"/><path class="cls-26" d="M994.77,564.23c11.11-12.16,30.32-7.46,36.76,3.7a63.34,63.34,0,0,1,8.73,30.31c.51,20.88,1.8,41.83-1.78,62.62-2.31,13.44-7,26-17.9,36-10.54,9.7-23.6,13.77-38.47,13.63-4.41,0-10.15,1.25-12.88-.73-2.92-2.12-.89-7.49-.9-11.42-.06-60.53,0-121.06-.14-181.59,0-3.85.78-5.4,5.41-5a123.49,123.49,0,0,0,16,0c4-.22,5.4.61,5.31,4.55-.3,14-.12,28.11-.12,42.16Z" transform="translate(-168.76 -191.95)"/><path class="cls-27" d="M461.2,699.8c-3.36,2.85-6.16,5.53-9.32,7.84-7.26,5.3-15.59,6.28-24,3.06-7.85-3-11.33-9.29-12.45-16.65a35.41,35.41,0,0,1-.31-5.25c0-41.68.08-83.36-.15-125,0-4.63,1.62-5.66,6.26-5.34a87.39,87.39,0,0,0,14.38,0c5.17-.5,5.91,1.43,5.89,5.54-.16,38.33-.09,76.65-.09,115,0,1.44,0,2.88,0,4.31.08,6.57,3,9.77,8.78,9.75,6.3,0,10.23-3.75,10.23-9.81q0-59.16,0-118.33c0-6.34,0-6.34,6.85-6.34,4.8,0,9.61.23,14.39-.07,4.11-.26,5.37.81,5.35,4.69-.18,35.61-.11,71.22-.11,106.83,0,5.43.11,10.86,0,16.29-.09,3.33.57,6.44,3.06,8.9,1.75,1.75,1.45,2.77-.31,4.28-3.71,3.2-7.37,6.48-10.73,10-2.26,2.34-4.26,2.45-7.31,1.22C466.28,708.47,463.42,704.66,461.2,699.8Z" transform="translate(-168.76 -191.95)"/><path class="cls-28" d="M920.77,699.79c-3.13,2.65-6,5.28-9.06,7.63-7.17,5.45-15.51,6.49-24,3.43-7.9-2.86-11.51-9.11-12.77-16.47a37.76,37.76,0,0,1-.53-6.19c0-41.67,0-83.35-.12-125,0-3.76,1-5,5.28-4.75a129.93,129.93,0,0,0,16.51,0c4.11-.28,4.9,1,4.89,4.45-.15,39.13-.1,78.25-.09,117.37a42.25,42.25,0,0,0,.19,5.74c.66,4.69,4,7.19,9,7,5.29-.18,9.43-3.44,9.81-7.76.09-1.12,0-2.24,0-3.36,0-39.6.07-79.2-.1-118.8,0-3.83,1.17-4.88,5.28-4.64a127.17,127.17,0,0,0,16,0c4.31-.29,5.25,1.09,5.24,4.79-.15,39.76-.08,79.52-.11,119.28,0,4.83-.15,9.66,3.94,13.47,1.58,1.47.19,2.22-.76,3.09-4.09,3.77-8.27,7.46-12.27,11.31-1.72,1.66-3.28,1.24-5.23.55C926.21,708.87,922.91,704.92,920.77,699.79Z" transform="translate(-168.76 -191.95)"/><path class="cls-29" d="M806,534c-18.93-1-26.87,3.89-32.89,20.52-5.28,14.55-6.44,29.66-6.64,44.84-.26,20.26-.24,40.52,4.38,60.49,1.86,8.06,5.26,15.52,12,21.45,5.42,4.81,11.86,6.94,19.38,5.44,3-.61,4-.23,3.88,2.73a88.14,88.14,0,0,0,0,14.35c.53,4.91-2.05,6.74-6.81,7.64-13.11,2.49-24.68-.43-34.63-8.2-12.07-9.41-19-21.82-23-35.4-11.29-38.86-12.11-77.77,1.46-116.39a70.74,70.74,0,0,1,21.65-31.33c10.83-9,23.21-12.52,37.72-8.2,2.57.77,3.62,1.85,3.53,4.38C805.84,522.2,806,528.1,806,534Z" transform="translate(-168.76 -191.95)"/><path class="cls-30" d="M856.64,697.39c-6.19,4.57-12,8.74-17.65,13.09-2,1.53-3.63,1.27-5.71.34-6-2.68-9.63-6.89-10.29-13a66,66,0,0,1-.44-7.16c0-57.92,0-115.84-.14-173.76,0-4.15,1-5.59,5.75-5.19a93.53,93.53,0,0,0,15.43,0c4.71-.39,5.36,1.26,5.34,5-.18,30.64-.1,61.28-.1,91.91,0,23.62-.09,47.23.06,70.85C848.93,686.18,848.77,693.13,856.64,697.39Z" transform="translate(-168.76 -191.95)"/><path class="cls-31" d="M551.25,577.44c-4-1-7.15-2.35-10.62-1.92-8.34,1.05-13.46,6.74-12.94,14.93.56,8.83,3.72,17.15,7,25.4,6.42,16,14,31.62,17.88,48.37a68.47,68.47,0,0,1,1.74,19.95c-1.21,19.23-16.3,30.44-37.65,28-13-1.5-13.44-1.94-13.44-13.62v-7.08c4.21.88,8.11,2.14,12.34,1.9,9.17-.53,15.17-5.89,15.19-14.17,0-10.41-4.16-20-8-29.51-6.07-14.92-13.16-29.52-17-45.13a64.2,64.2,0,0,1-1.54-23.25c2.26-18.44,18.61-28.25,38.46-23.07,8.57,2.24,8.57,2.24,8.57,10.25Z" transform="translate(-168.76 -191.95)"/><path class="cls-32" d="M666.09,576.68c-13-1.37-19.65,2.67-23.43,14-3,9-3.27,18.23-3.39,27.48-.26,19.29-1,38.6,2.48,57.76a33.55,33.55,0,0,0,2,6.43c3.38,8.37,9.43,11.47,19.1,9.41,2.76-.59,3.41-.29,3.32,2.17-.15,4.15-.22,8.31,0,12.45.14,2.46-1.23,3.27-3.42,4-15.26,5.13-31.6-.6-39.14-14-7-12.46-9.68-26-10.34-39.73-.87-18.16-1.5-36.38.79-54.51,1.49-11.82,4.76-23.22,12.93-32.93,9.12-10.85,21.45-14,35.92-11.6,1.79.3,3.34.42,3.25,2.79C666,565.81,666.09,571.23,666.09,576.68Z" transform="translate(-168.76 -191.95)"/><path class="cls-33" d="M595.87,634.86c0,23.77-.08,47.54.1,71.31,0,3.47-.71,4.76-4.85,4.47a115,115,0,0,0-16,0c-4.53.31-5.93-.71-5.9-5.1.25-34.3.14-68.6.14-102.9,0-13.4.11-26.8-.08-40.2,0-3.16.93-4.16,4.46-4,5.85.25,11.73.3,17.57,0,3.79-.2,4.64.89,4.62,4.19C595.8,586.68,595.87,610.77,595.87,634.86Z" transform="translate(-168.76 -191.95)"/><path d="M582.69,534.05c-8.79.05-15.81-5.1-15.87-11.65-.06-6.33,7.28-12,15.6-12.15s15.69,5.37,15.76,11.85C598.26,528.81,591.55,534,582.69,534.05Z" transform="translate(-168.76 -191.95)"/><path class="cls-34" d="M994.77,686.41V633.58c0-16.45,0-32.9.05-49.35,0-2.48-1.41-5.7,2.92-6.74s8.14-.62,11.21,2.49c2.59,2.61,3.32,5.93,4,9.24a72.92,72.92,0,0,1,1.11,13.83c0,20,.16,39.93-.15,59.89-.12,7.4-1.77,14.69-8.75,19.8A17.35,17.35,0,0,1,994.77,686.41Z" transform="translate(-168.76 -191.95)"/><path class="cls-35" d="M891.41,631.05h-1.14V649a4.92,4.92,0,0,0-4.24-.12c-2.13.85-3.29,2.71-2.58,4.15s3,1.91,5.15,1.06a4,4,0,0,0,2.78-3.1h0Z" transform="translate(-168.76 -191.95)"/><path class="cls-36" d="M794.68,519h-2.24v35.19c-2.07-1.28-5.29-1.46-8.34-.25-4.19,1.67-6.46,5.32-5.07,8.15s5.92,3.77,10.12,2.1c3.24-1.29,5.31-3.75,5.46-6.1h.07Z" transform="translate(-168.76 -191.95)"/><path class="cls-37" d="M794.89,558.29h1v16.28a4.47,4.47,0,0,1,3.86-.11c1.94.77,3,2.46,2.35,3.77s-2.74,1.74-4.68,1a3.64,3.64,0,0,1-2.53-2.82h0Z" transform="translate(-168.76 -191.95)"/><path class="cls-38" d="M575.39,568.41l-21.11,4.34v4.94h0v16.24a5.77,5.77,0,0,0-4.09.16c-2.35.94-3.62,3-2.84,4.56s3.32,2.11,5.67,1.18a4.59,4.59,0,0,0,3-3.13h0v-.07a2.27,2.27,0,0,0,0-.78V577.31l17.55-3.77v16.37a5.79,5.79,0,0,0-4.12.15c-2.35.94-3.62,3-2.84,4.57s3.32,2.11,5.67,1.17c2-.78,3.15-2.33,3-3.74h0v-18.9h0Z" transform="translate(-168.76 -191.95)"/><path class="cls-39" d="M784.89,285.76l-8,1.64v1.86h0v6.11a2.23,2.23,0,0,0-1.54.06c-.89.36-1.37,1.13-1.07,1.72a1.68,1.68,0,0,0,2.13.45,1.78,1.78,0,0,0,1.14-1.18h0v0a.71.71,0,0,0,0-.29v-7l6.62-1.42v6.17a2.17,2.17,0,0,0-1.56.06c-.88.35-1.36,1.12-1.07,1.72a1.7,1.7,0,0,0,2.14.44,1.59,1.59,0,0,0,1.15-1.41h0v-7.12h0Z" transform="translate(-168.76 -191.95)"/><path class="cls-40" d="M558.2,624l-19.47-4.6c0,.49,0,6.1,0,18.6a5.24,5.24,0,0,0-3.74.14c-2.14.86-3.3,2.72-2.59,4.17s3,1.93,5.18,1.07c1.88-.75,3-2.27,2.77-3.62V624.05l16.13,3.59v16.52a5.29,5.29,0,0,0-3.72.15c-2.15.86-3.31,2.72-2.6,4.17s3,1.92,5.18,1.07c1.91-.76,3-2.32,2.76-3.67C558.12,623.9,558.09,627.2,558.2,624Z" transform="translate(-168.76 -191.95)"/><path class="cls-41" d="M803.31,570.19,840,563.57c0,.71,0,8.79,0,26.77a12.83,12.83,0,0,1,7,.21c4,1.23,6.23,3.92,4.89,6s-5.72,2.77-9.76,1.54c-3.55-1.07-5.66-3.27-5.23-5.2V570.21l-30.38,5.17v23.78a12.78,12.78,0,0,1,7,.21c4.05,1.24,6.23,3.92,4.89,6s-5.71,2.77-9.76,1.54c-3.6-1.1-5.71-3.34-5.19-5.29C803.46,570,803.51,574.75,803.31,570.19Z" transform="translate(-168.76 -191.95)"/><path class="cls-42" d="M359.11,702.25l-33.42,6.68v7.62h0v25a9.41,9.41,0,0,0-6.48.24c-3.72,1.45-5.73,4.6-4.49,7s5.25,3.25,9,1.81c2.66-1,4.41-2.93,4.77-4.82h0v-.11a3.78,3.78,0,0,0,0-1.21V720l27.78-5.65v21a9.35,9.35,0,0,0-6.52.23c-3.72,1.44-5.73,4.6-4.5,7s5.26,3.25,9,1.8c3.1-1.2,5-3.58,4.82-5.76h0V709.57h0Zm-2.82,9.61-27.78,5.66V716l27.78-5.8Z" transform="translate(-168.76 -191.95)"/><path class="cls-43" d="M869.62,601.22l-13.91,2.85v3.26h0V618a3.84,3.84,0,0,0-2.7.1c-1.55.62-2.38,2-1.87,3s2.19,1.39,3.74.78a3.08,3.08,0,0,0,2-2.06h0v-.05a1.51,1.51,0,0,0,0-.52V608.82l11.57-2.42v9a3.84,3.84,0,0,0-2.72.1c-1.55.62-2.38,2-1.87,3s2.19,1.39,3.74.77a2.75,2.75,0,0,0,2-2.46h0V604.35h0Zm-1.17,4.11-11.57,2.41v-.66l11.57-2.48Z" transform="translate(-168.76 -191.95)"/><path class="cls-44" d="M487.21,640.65c-1.83-3.34-7.76-4.44-13.25-2.47-4.82,1.73-7.69,5.25-7.09,8.34v44.92h2.93V650.06c2.71,1.43,6.84,1.62,10.77.21C486.06,648.3,489,644,487.21,640.65Z" transform="translate(-168.76 -191.95)"/><path class="cls-45" d="M436.52,711.82c-.2-4.09-6.35-8.48-13.73-9.82-6.47-1.17-11.73.4-12.8,3.56l-25.32,40.92,3.34,1.67,23.34-37.69c2.28,2.85,6.89,5.37,12.17,6.33C430.89,718.12,436.71,715.9,436.52,711.82Z" transform="translate(-168.76 -191.95)"/><path class="cls-46" d="M518.22,696a1.48,1.48,0,0,0-1.84-.75,1.25,1.25,0,0,0-.83,1.66c2.14,5.12-3.1,8.59-8.65,11.69l-1.1.61a31.58,31.58,0,0,0-5.38,3.69V672.82c2.64,1.57,6.69,1.78,10.53.26,5.35-2.14,8.24-6.8,6.48-10.4s-7.57-4.8-12.92-2.67c-4.54,1.81-7.29,5.42-6.95,8.68v49.16a1.44,1.44,0,0,0,2.86,0v-.09c.51-1.67,1.42-3.23,6.92-6.39l1.06-.6C512.94,708.23,521.37,703.52,518.22,696Z" transform="translate(-168.76 -191.95)"/><path class="cls-47" d="M748.54,567.76a.92.92,0,0,1-1.19.56,1,1,0,0,1-.54-1.24c1.39-3.85-2-6.44-5.58-8.77l-.71-.46a20.65,20.65,0,0,1-3.47-2.77v30.06a7,7,0,0,1,6.8-.19c3.45,1.6,5.32,5.09,4.18,7.79s-4.89,3.61-8.34,2c-2.94-1.36-4.71-4.07-4.49-6.51V551.36a.93.93,0,1,1,1.85,0v.07c.32,1.25.91,2.42,4.46,4.79l.69.45C745.13,558.57,750.58,562.11,748.54,567.76Z" transform="translate(-168.76 -191.95)"/><path class="cls-48" d="M766.65,514.85a3.14,3.14,0,0,0-3.09-.8c-1.23.27-1.86,1.06-1.39,1.77,3.6,5.48-5.2,9.18-14.51,12.5l-1.83.66a59,59,0,0,0-9,3.94V490.07c4.42,1.67,11.21,1.91,17.66.27,9-2.28,13.82-7.26,10.86-11.11s-12.69-5.14-21.66-2.86c-7.62,1.94-12.24,5.8-11.66,9.28v52.57c0,.76,1.07,1.38,2.4,1.38s2.4-.62,2.4-1.38v-.1c.85-1.78,2.37-3.45,11.6-6.83l1.78-.64C757.79,527.94,771.94,522.9,766.65,514.85Z" transform="translate(-168.76 -191.95)"/><path class="cls-49" d="M993,520.06a4.48,4.48,0,1,0-4.63-4.49A4.55,4.55,0,0,0,993,520.06Z" transform="translate(-168.76 -191.95)"/><path class="cls-50" d="M993,530.1a4.47,4.47,0,1,0,4.61,4.47A4.55,4.55,0,0,0,993,530.1Z" transform="translate(-168.76 -191.95)"/><path class="cls-51" d="M975.39,501.83a25.74,25.74,0,0,0-10.18-3.76,25.45,25.45,0,0,0-9.94.5,21,21,0,0,0-7.9,3.9c-10.17,8.28-6.69,20.16,2.42,20.16a8.48,8.48,0,0,0,8.61-8.34,8.29,8.29,0,0,0-4.64-7.37,12.71,12.71,0,0,1,3.53-1.82,19.4,19.4,0,0,1,15.08,1.44,17.4,17.4,0,0,1,6.4,6,20.6,20.6,0,0,1,3,8.81,38.51,38.51,0,0,1-.38,9.82,43.32,43.32,0,0,1-2.58,9.3,51.41,51.41,0,0,1-9.23,14.73,58.28,58.28,0,0,1-9.26,8.46,42.76,42.76,0,0,1-4,2.64.68.68,0,0,0-.28.93.73.73,0,0,0,1,.29h0a42.83,42.83,0,0,0,4.22-2.6,67.54,67.54,0,0,0,9.89-8.34,54.58,54.58,0,0,0,10.47-14.95A46.44,46.44,0,0,0,985.94,521a25.08,25.08,0,0,0-2.83-10.88A22.7,22.7,0,0,0,975.39,501.83Z" transform="translate(-168.76 -191.95)"/><path class="cls-52" d="M305,667.13a45.25,45.25,0,0,0-23.78-22.33,51.49,51.49,0,0,0-31.52-2.26,50.91,50.91,0,0,0-14.85,6.19c-.44-2.31-.89-4.59-1.31-7-.82-4.44-1.55-9-2.24-13.54a109.91,109.91,0,0,0,12.89-12.82c9.69-10.75,16.74-23.94,18.41-37.93,4.71-41.86-10.19-62-22.25-60.92-26.4,3.6-22.9,44.12-17.69,86.12a137,137,0,0,1-11.36,11.38l-7.39,6.53c-2.45,2.11-5,4.59-7.64,7.25C186,638,177.65,649.72,172.71,663.14c-5.12,13.29-4.82,29.17,2.73,41.7,7.33,12.65,19.93,21.19,33,25.88a101.16,101.16,0,0,0,38.9,5.28c1.25,6,2.42,11.83,3.33,17.31,4,14.55-1.73,27.62-11.79,32.15a21.86,21.86,0,0,1-19.39-1.33,11.75,11.75,0,0,0,1.58.18c7.53.21,13.83-5.14,14-11.89s-5.77-12.38-13.27-12.57-13.79,5.15-14,11.91a14,14,0,0,0,.12,1.6h0s0,0,.06.15a11.68,11.68,0,0,0,3.57,7c.37.47.74.93,1.19,1.42a25.57,25.57,0,0,0,10.35,6.58,29.31,29.31,0,0,0,17.27.34,24.18,24.18,0,0,0,15.45-13.77,26.05,26.05,0,0,0,2.39-11,90.78,90.78,0,0,0-1.33-11.61c-.95-5.45-2.08-11.18-3.3-17a93.11,93.11,0,0,0,31.83-9.83c10.72-6.15,19.08-15.64,22.2-26.49A43.53,43.53,0,0,0,305,667.13ZM246.21,532.06c5.3,1.51,6,8,5.94,12.19a57,57,0,0,1-8.14,28.4,259.91,259.91,0,0,1-16.27,23.8C224.82,554.45,235.55,529,246.21,532.06Zm-33,189.4c-10.68-5-19.95-12.8-24.26-22.36s-3.44-20.22,1.49-30,13.43-18.61,22.62-26.46c2.17-1.85,4.55-3.79,7.39-5.85l3.81-2.88c.92-.68,1.85-1.37,2.77-2.08.59,3.58,1.18,7.14,1.74,10.66.55,3.14,1.12,6.19,1.68,9.28-8.06,6.31-13,14.39-15,21.52a39.23,39.23,0,0,0,2.17,27.07,40.39,40.39,0,0,0,3.43,6.2c.9,1.33,1.37,2,1.37,2a63.86,63.86,0,0,1-1.61-8.93c-.54-5.7-.68-14.38,4-23.4A36.11,36.11,0,0,1,233,665.59c2.49,12.92,5,25.34,7.42,37.09,1.8,9.12,3.7,17.83,5.47,26.12A78.73,78.73,0,0,1,213.17,721.46Zm87-23.81c-1.46,9.22-8.16,18-18,23.13a73.93,73.93,0,0,1-29.88,7.9c-1.86-8.6-3.93-17.61-6.12-27-2.91-12.45-5.87-25.72-8.66-39.54a40.57,40.57,0,0,1,56.2,10.3A34.33,34.33,0,0,1,300.15,697.65Z" transform="translate(-168.76 -191.95)"/><path class="cls-53" d="M627.54,532.76a16.55,16.55,0,0,0-8.68-8.16,18.83,18.83,0,0,0-11.52-.82,18.61,18.61,0,0,0-5.42,2.26c-.16-.84-.33-1.68-.48-2.54-.3-1.62-.57-3.28-.82-5a40,40,0,0,0,4.71-4.68A25.55,25.55,0,0,0,612.05,500c1.72-15.29-3.72-22.63-8.12-22.25-9.64,1.31-8.37,16.11-6.46,31.45a50.89,50.89,0,0,1-4.15,4.16l-2.7,2.38c-.9.77-1.83,1.68-2.79,2.65a35.69,35.69,0,0,0-8.61,12.89,17.63,17.63,0,0,0,1,15.24c2.68,4.62,7.28,7.73,12.07,9.45a37,37,0,0,0,14.21,1.93c.45,2.19.88,4.32,1.21,6.32,1.47,5.32-.63,10.09-4.31,11.74a8,8,0,0,1-7.08-.48,3.68,3.68,0,0,0,.58.06,4.78,4.78,0,0,0,5.13-4.34,5,5,0,0,0-9.95-.24,5.44,5.44,0,0,0,0,.58h0l0,.06a4.29,4.29,0,0,0,1.31,2.56c.13.17.27.34.43.52a9.37,9.37,0,0,0,3.78,2.4,10.7,10.7,0,0,0,6.31.13,8.82,8.82,0,0,0,5.64-5,9.44,9.44,0,0,0,.88-4,34.13,34.13,0,0,0-.49-4.24c-.34-2-.76-4.08-1.2-6.22a34.18,34.18,0,0,0,11.62-3.59,17.06,17.06,0,0,0,8.11-9.68A15.9,15.9,0,0,0,627.54,532.76Zm-21.47-49.34c1.94.56,2.19,2.94,2.17,4.46a20.8,20.8,0,0,1-3,10.37,94.34,94.34,0,0,1-5.94,8.69C598.26,491.6,602.18,482.31,606.07,483.42ZM594,552.61c-3.9-1.85-7.28-4.68-8.86-8.17a12.5,12.5,0,0,1,.55-11,33.58,33.58,0,0,1,8.26-9.67c.79-.67,1.66-1.38,2.7-2.14l1.39-1,1-.76c.22,1.31.43,2.61.64,3.9s.41,2.26.61,3.39a15.62,15.62,0,0,0-5.49,7.86,14.38,14.38,0,0,0,.79,9.89,14.73,14.73,0,0,0,1.25,2.26l.51.73a23.49,23.49,0,0,1-.59-3.27,15,15,0,0,1,1.46-8.54,13,13,0,0,1,3-3.88c.91,4.72,1.83,9.25,2.71,13.55.66,3.33,1.36,6.51,2,9.54A28.79,28.79,0,0,1,594,552.61Zm31.78-8.7a12.06,12.06,0,0,1-6.59,8.45,27.18,27.18,0,0,1-10.92,2.89q-1-4.72-2.23-9.87c-1.07-4.55-2.15-9.4-3.17-14.44a14.81,14.81,0,0,1,20.53,3.76A12.53,12.53,0,0,1,625.78,543.91Z" transform="translate(-168.76 -191.95)"/><path class="cls-54" d="M1003.42,683.45v-46.3c0-14.42,0-28.84,0-43.26,0-2.18-.75-5,1.56-5.91s4.35-.54,6,2.18c1.38,2.29,1.77,5.2,2.11,8.1a104.17,104.17,0,0,1,.6,12.13c0,17.49.09,35-.08,52.48-.07,6.49-1,12.88-4.67,17.36C1007.4,682.1,1005.64,683.39,1003.42,683.45Z" transform="translate(-168.76 -191.95)"/></svg>